<?xml version="1.0" encoding="UTF-8"?>
<!-- Generator: Adobe Illustrator 19.1.0, SVG Export Plug-In . SVG Version: 6.00 Build 0)  -->
<svg version="1.1" id="text" xmlns="http://www.w3.org/2000/svg" xmlns:xlink="http://www.w3.org/1999/xlink" x="0px" y="0px" viewBox="0 0 221.7 111.2" enable-background="new 0 0 221.7 111.2" xml:space="preserve">
<g>
	<g>
		<polygon fill="#FF5000" points="53.2,31.7 53.2,21.2 21.5,21.1 21.5,31.7 30,37.1 21.5,42.3 21.5,52.9 53.2,52.9 53.2,42.4     34.9,42.4 34.9,42.3 42.6,37.1 34.9,31.8 35,31.7   "/>
		<g>
			<path fill="#FF5000" d="M63.7,21.2v52.7c0,14.5-11.8,26.4-26.4,26.4S11,88.4,11,73.8V21.2H0v52.7c0,20.6,16.8,37.3,37.3,37.3     s37.3-16.8,37.3-37.3V21.2H63.7z"/>
		</g>
		<rect fill="#1D1D1B" width="74.7" height="10.6"/>
		<path fill="#FF5000" d="M37.3,58.2H21.5v10.6h15.9c2.9,0,5.3,2.4,5.3,5.3c0,2.9-2.4,5.3-5.3,5.3H32V90h5.3    c8.8,0,15.9-7.1,15.9-15.9C53.2,65.4,46.1,58.2,37.3,58.2z"/>
	</g>
	<g>
		<path fill="#FF5000" d="M89.5,60.7l2.2,2.4c2.2-1.5,3.1-2.5,3.1-4.9V42.5h-4v15.7C90.7,59.3,90.1,60,89.5,60.7z"/>
		<polygon fill="#FF5000" points="105.8,51.8 105.8,48.7 102,48.7 102,45.6 106.2,45.6 106.2,42.5 97.9,42.5 97.9,58.1 106.3,58.1     106.3,55 102,55 102,51.8   "/>
		<path fill="#FF5000" d="M115.8,55.3l0.3,2.9h4.2l-3.1-15.7h-5.3l-3.1,15.7h4.2l0.3-2.9H115.8z M114.5,44.6l1,7.6h-1.9L114.5,44.6z    "/>
		<polygon fill="#FF5000" points="134,58.1 134,42.5 130.2,42.5 130.2,50.3 126.9,42.5 122.8,42.5 122.8,58.1 126.7,58.1     126.7,50.3 130,58.1   "/>
		<polygon fill="#FF5000" points="153,58.1 156.7,58.1 156.1,42.5 152.2,42.5 149.6,50.8 147.1,42.5 143.1,42.5 142.6,58.1     146.3,58.1 146.5,50.1 148,54.9 151.3,54.9 152.8,50.1   "/>
		<path fill="#FF5000" d="M164.6,42.2c-3.5,0-5.2,1.6-5.2,4.8v6.7c0,3.2,1.7,4.8,5.2,4.8s5.2-1.6,5.2-4.8v-6.7    C169.8,43.7,168.1,42.2,164.6,42.2z M165.8,54.1c0,1.1-0.7,1.2-1.2,1.2s-1.2-0.2-1.2-1.2v-7.6c0-1.1,0.7-1.2,1.2-1.2    s1.2,0.2,1.2,1.2V54.1z"/>
		<polygon fill="#FF5000" points="184,58.1 184,42.5 180.1,42.5 180.1,50.3 176.8,42.5 172.8,42.5 172.8,58.1 176.7,58.1     176.7,50.3 180,58.1   "/>
		<polygon fill="#FF5000" points="198.5,58.1 198.5,42.5 194.6,42.5 194.6,50.3 191.3,42.5 187.3,42.5 187.3,58.1 191.1,58.1     191.1,50.3 194.5,58.1   "/>
		<polygon fill="#FF5000" points="209.6,51.8 209.6,48.7 205.7,48.7 205.7,45.6 210,45.6 210,42.5 201.7,42.5 201.7,58.1     210.1,58.1 210.1,55 205.7,55 205.7,51.8   "/>
		<polygon fill="#FF5000" points="221.7,42.5 212.4,42.5 212.4,45.6 215,45.6 215,58.1 219,58.1 219,45.6 221.7,45.6   "/>
	</g>
	<g>
		<path fill="#FF5000" d="M95.8,37.3c3.4,0,5.2-1.5,5.2-4.3V21.3h-4V33c0,0.7-0.4,1.1-1.2,1.1c-0.8,0-1.2-0.4-1.2-1.2V21.3h-4v11.6    C90.7,35.8,92.5,37.3,95.8,37.3z"/>
		<polygon fill="#FF5000" points="115.4,37 115.4,21.3 111.6,21.3 111.6,29.1 108.3,21.3 104.2,21.3 104.2,37 108.1,37 108.1,29.1     111.4,37   "/>
		<rect x="118.7" y="21.3" fill="#FF5000" width="4" height="15.7"/>
		<polygon fill="#FF5000" points="132.2,21.3 130.9,32.9 129.7,21.3 125.3,21.3 128.2,37 133.7,37 136.5,21.3   "/>
		<polygon fill="#FF5000" points="146.9,30.6 146.9,27.5 143.1,27.5 143.1,24.4 147.4,24.4 147.4,21.3 139.1,21.3 139.1,37     147.4,37 147.4,33.8 143.1,33.8 143.1,30.6   "/>
		<path fill="#FF5000" d="M155.2,31.8l1.7,5.1h4.2l-2-5.8l0.2-0.1c0.9-0.6,1.4-1.5,1.4-3v-3c0-2.7-1.2-3.8-4-3.8h-6.3V37h4v-5.2    L155.2,31.8L155.2,31.8z M154.3,24.4h1.3c0.7,0,1,0.4,1,1v2.3c0,0.7-0.4,1-1,1h-1.3V24.4z"/>
		<path fill="#FF5000" d="M172.4,32.1c0-3.9-0.8-4.4-3.1-5c-1.6-0.4-1.9-0.6-1.9-1.5c0-1,0.6-1.1,1.6-1.1c0.8,0,1.7,0.2,2.2,0.3    l0.4-3.3c-0.9-0.2-2.3-0.4-3.3-0.4c-3.6,0-4.8,1.3-4.8,5.1c0,3.3,0.3,4.5,3.4,5.1c1.2,0.2,1.6,0.4,1.6,1.4c0,1-0.6,1.2-1.8,1.2    c-0.7,0-1.7-0.1-2.5-0.4l-0.4,3.4c1.4,0.3,2.9,0.4,3.9,0.4C170.9,37.3,172.4,35.7,172.4,32.1z"/>
		<rect x="175.2" y="21.3" fill="#FF5000" width="4" height="15.7"/>
		<polygon fill="#FF5000" points="191.2,21.3 181.8,21.3 181.8,24.5 184.5,24.5 184.5,37 188.5,37 188.5,24.5 191.2,24.5   "/>
		<polygon fill="#FF5000" points="201.7,30.6 201.7,27.5 197.8,27.5 197.8,24.4 202.1,24.4 202.1,21.3 193.8,21.3 193.8,37     202.1,37 202.1,33.8 197.8,33.8 197.8,30.6   "/>
		<polygon fill="#FF5000" points="196.1,20 199.8,20 201.4,17.4 197.3,16.6   "/>
	</g>
	<g>
		<path fill="#1D1D1B" d="M94.6,72.2C92,71.5,92,71.5,92,69.5c0-1.5,0.2-2.1,2.8-2.1c0.9,0,2.1,0.1,3.2,0.4l0.2,0l0.2-1.3l-0.2,0    c-0.9-0.3-2.3-0.5-3.4-0.5c-3.5,0-4.2,1.3-4.2,3.4c0,2.8,0.5,3.4,3.6,4.1c2.8,0.6,2.8,0.8,2.8,2.7c0,1.5-0.4,2.1-2.7,2.1    c-1.1,0-2.3-0.2-3.5-0.5l-0.2-0.1l-0.3,1.3l0.1,0.1c1,0.4,2.4,0.6,3.7,0.6c3.5,0,4.2-1.4,4.2-3.6C98.4,73.6,98.1,73.1,94.6,72.2z"/>
		<path fill="#1D1D1B" d="M103.8,66.2l-4.1,13.4h1.3l1.1-3.4h5.1l1.1,3.4h1.3l-4.1-13.4H103.8z M102.5,74.8l2.2-7.2l2.2,7.2H102.5z"/>
		<rect x="111.9" y="66.2" fill="#1D1D1B" width="1.5" height="13.4"/>
		<polygon fill="#1D1D1B" points="124.5,77.6 118.6,66.2 116.6,66.2 116.6,79.6 118.1,79.6 118.1,68.3 124,79.6 125.9,79.6     125.9,66.2 124.5,66.2   "/>
		<polygon fill="#1D1D1B" points="136.3,66.2 127.9,66.2 127.9,67.6 131.3,67.6 131.3,79.6 132.9,79.6 132.9,67.6 136.3,67.6   "/>
		<polygon fill="#1D1D1B" points="161.1,66.2 152.8,66.2 152.8,67.6 156.2,67.6 156.2,79.6 157.7,79.6 157.7,67.6 161.1,67.6   "/>
		<rect x="135.9" y="73.3" fill="#1D1D1B" width="4.9" height="1.3"/>
		<polygon fill="#1D1D1B" points="145.2,73.5 150.6,73.5 150.6,72.1 145.2,72.1 145.2,67.6 151,67.6 151,66.2 143.7,66.2     143.7,79.6 151,79.6 151,78.2 145.2,78.2   "/>
		<path fill="#1D1D1B" d="M147.2,65.6c0.8-0.4,1.6-0.9,2.4-1.5l0.1-0.1l-0.8-1.2l-0.2,0.1c-0.8,0.6-1.6,1.1-2.4,1.6l-0.2,0.1    l0.7,1.1L147.2,65.6z"/>
		<rect x="163.3" y="66.2" fill="#1D1D1B" width="1.5" height="13.4"/>
		<polygon fill="#1D1D1B" points="169.5,73.5 174.8,73.5 174.8,72.1 169.5,72.1 169.5,67.6 175.2,67.6 175.2,66.2 167.9,66.2     167.9,79.6 175.3,79.6 175.3,78.2 169.5,78.2   "/>
		<polygon fill="#1D1D1B" points="185.8,77.6 179.9,66.2 177.9,66.2 177.9,79.6 179.4,79.6 179.4,68.3 185.3,79.6 187.3,79.6     187.3,66.2 185.8,66.2   "/>
		<polygon fill="#1D1D1B" points="198.2,77.6 192.3,66.2 190.3,66.2 190.3,79.6 191.8,79.6 191.8,68.3 197.7,79.6 199.7,79.6     199.7,66.2 198.2,66.2   "/>
		<polygon fill="#1D1D1B" points="204.3,78.2 204.3,73.5 209.6,73.5 209.6,72.1 204.3,72.1 204.3,67.6 210,67.6 210,66.2     202.8,66.2 202.8,79.6 210.1,79.6 210.1,78.2   "/>
	</g>
</g>
</svg>